<svg xmlns="http://www.w3.org/2000/svg" viewBox="0 0 64 64">
  <path d="M8 6C6.897 6 6 6.897 6 8L6 56C6 57.103 6.897 58 8 58L56 58C57.103 58 58 57.103 58 56L58 8C58 6.897 57.103 6 56 6L8 6 z M 8 8L56 8L56.001953 56L8 56L8 8 z M 14 14C12.897 14 12 14.897 12 16L12 24C12 25.103 12.897 26 14 26L22 26C23.103 26 24 25.103 24 24L24 21.082031C24 20.530031 23.552 20.082031 23 20.082031C22.448 20.082031 22 20.530031 22 21.082031L22 24L14 24L14 16L20 16C20.552 16 21 15.552 21 15C21 14.448 20.552 14 20 14L14 14 z M 24.5 14.5C24.24425 14.5 23.988469 14.597469 23.792969 14.792969L18 20.585938L16.707031 19.292969C16.316031 18.901969 15.683969 18.901969 15.292969 19.292969C14.901969 19.683969 14.901969 20.316031 15.292969 20.707031L17.292969 22.707031C17.487969 22.902031 17.744 23 18 23C18.256 23 18.512031 22.902031 18.707031 22.707031L25.207031 16.207031C25.598031 15.816031 25.598031 15.183969 25.207031 14.792969C25.011531 14.597469 24.75575 14.5 24.5 14.5 z M 29 16C28.448 16 28 16.448 28 17C28 17.552 28.448 18 29 18L51 18C51.552 18 52 17.552 52 17C52 16.448 51.552 16 51 16L29 16 z M 29 20C28.448 20 28 20.448 28 21C28 21.552 28.448 22 29 22L45 22C45.552 22 46 21.552 46 21C46 20.448 45.552 20 45 20L29 20 z M 14 32C12.897 32 12 32.897 12 34L12 42C12 43.103 12.897 44 14 44L22 44C23.103 44 24 43.103 24 42L24 39.082031C24 38.530031 23.552 38.082031 23 38.082031C22.448 38.082031 22 38.530031 22 39.082031L22 42L14 42L14 34L20 34C20.552 34 21 33.552 21 33C21 32.448 20.552 32 20 32L14 32 z M 24.5 32.5C24.24425 32.5 23.988469 32.597469 23.792969 32.792969L18 38.585938L16.707031 37.292969C16.316031 36.901969 15.683969 36.901969 15.292969 37.292969C14.901969 37.683969 14.901969 38.316031 15.292969 38.707031L17.292969 40.707031C17.487969 40.902031 17.744 41 18 41C18.256 41 18.512031 40.902031 18.707031 40.707031L25.207031 34.207031C25.598031 33.816031 25.598031 33.183969 25.207031 32.792969C25.011531 32.597469 24.75575 32.5 24.5 32.5 z M 29 34C28.448 34 28 34.448 28 35C28 35.552 28.448 36 29 36L39 36C39.552 36 40 35.552 40 35C40 34.448 39.552 34 39 34L29 34 z M 43 34C42.448 34 42 34.448 42 35C42 35.552 42.448 36 43 36L51 36C51.552 36 52 35.552 52 35C52 34.448 51.552 34 51 34L43 34 z M 29 38C28.448 38 28 38.448 28 39C28 39.552 28.448 40 29 40L37 40C37.552 40 38 39.552 38 39C38 38.448 37.552 38 37 38L29 38 z M 12 50C11.448 50 11 50.448 11 51L11 53C11 53.552 11.448 54 12 54C12.552 54 13 53.552 13 53L13 51C13 50.448 12.552 50 12 50 z M 17 50C16.448 50 16 50.448 16 51L16 53C16 53.552 16.448 54 17 54C17.552 54 18 53.552 18 53L18 51C18 50.448 17.552 50 17 50 z M 22 50C21.448 50 21 50.448 21 51L21 53C21 53.552 21.448 54 22 54C22.552 54 23 53.552 23 53L23 51C23 50.448 22.552 50 22 50 z M 27 50C26.448 50 26 50.448 26 51L26 53C26 53.552 26.448 54 27 54C27.552 54 28 53.552 28 53L28 51C28 50.448 27.552 50 27 50 z M 32 50C31.448 50 31 50.448 31 51L31 53C31 53.552 31.448 54 32 54C32.552 54 33 53.552 33 53L33 51C33 50.448 32.552 50 32 50 z M 37 50C36.448 50 36 50.448 36 51L36 53C36 53.552 36.448 54 37 54C37.552 54 38 53.552 38 53L38 51C38 50.448 37.552 50 37 50 z M 42 50C41.448 50 41 50.448 41 51L41 53C41 53.552 41.448 54 42 54C42.552 54 43 53.552 43 53L43 51C43 50.448 42.552 50 42 50 z M 47 50C46.448 50 46 50.448 46 51L46 53C46 53.552 46.448 54 47 54C47.552 54 48 53.552 48 53L48 51C48 50.448 47.552 50 47 50 z M 52 50C51.448 50 51 50.448 51 51L51 53C51 53.552 51.448 54 52 54C52.552 54 53 53.552 53 53L53 51C53 50.448 52.552 50 52 50 z" fill="#FFCB08" />
</svg>